<mxfile host="app.diagrams.net" modified="2022-02-23T01:10:52.550Z" agent="5.0 (Macintosh; Intel Mac OS X 10_15_7) AppleWebKit/537.36 (KHTML, like Gecko) Chrome/98.0.4758.102 Safari/537.36" etag="3Xg76yL-t8pR4w7s_7V0" version="16.6.2" type="github">
  <diagram id="M86OGhaz675b2swjybKP" name="Page-1">
    <mxGraphModel dx="2593" dy="402" grid="1" gridSize="10" guides="1" tooltips="1" connect="1" arrows="1" fold="1" page="1" pageScale="1" pageWidth="850" pageHeight="1100" math="0" shadow="0">
      <root>
        <mxCell id="0" />
        <mxCell id="1" parent="0" />
        <mxCell id="29fOUDgn5rXssrcHdfZw-1" value="&lt;b&gt;&lt;br&gt;1. Employer&lt;br&gt;&lt;br&gt;&lt;/b&gt;" style="rounded=0;whiteSpace=wrap;html=1;fontSize=16;fillColor=#dae8fc;strokeColor=#6c8ebf;" parent="1" vertex="1">
          <mxGeometry y="1760" width="160" height="120" as="geometry" />
        </mxCell>
        <mxCell id="29fOUDgn5rXssrcHdfZw-2" value="&lt;b&gt;4.1 Employer Portal&lt;br&gt;&lt;/b&gt;" style="rounded=0;whiteSpace=wrap;html=1;fontSize=16;fillColor=#fff2cc;strokeColor=#d6b656;" parent="1" vertex="1">
          <mxGeometry x="400" y="1760" width="165" height="120" as="geometry" />
        </mxCell>
        <mxCell id="29fOUDgn5rXssrcHdfZw-3" value="&lt;b&gt;&lt;font style=&quot;font-size: 14px&quot;&gt;2. Certificate Holder&lt;/font&gt;&lt;br&gt;&lt;/b&gt;" style="rounded=0;whiteSpace=wrap;html=1;fontSize=16;fillColor=#dae8fc;strokeColor=#6c8ebf;" parent="1" vertex="1">
          <mxGeometry x="1115" y="1760" width="160" height="120" as="geometry" />
        </mxCell>
        <mxCell id="29fOUDgn5rXssrcHdfZw-4" value="&lt;b&gt;3. Institution&lt;br&gt;&lt;/b&gt;" style="rounded=0;whiteSpace=wrap;html=1;fontSize=16;fillColor=#dae8fc;strokeColor=#6c8ebf;" parent="1" vertex="1">
          <mxGeometry x="1700" y="1760" width="160" height="120" as="geometry" />
        </mxCell>
        <mxCell id="29fOUDgn5rXssrcHdfZw-5" value="" style="endArrow=classic;startArrow=classic;html=1;rounded=0;fontSize=13;exitX=0.997;exitY=0.161;exitDx=0;exitDy=0;exitPerimeter=0;" parent="1" source="29fOUDgn5rXssrcHdfZw-1" edge="1">
          <mxGeometry width="50" height="50" relative="1" as="geometry">
            <mxPoint x="160" y="1790" as="sourcePoint" />
            <mxPoint x="400" y="1780" as="targetPoint" />
          </mxGeometry>
        </mxCell>
        <mxCell id="29fOUDgn5rXssrcHdfZw-6" value="&lt;b style=&quot;font-size: 12px;&quot;&gt;&lt;font style=&quot;font-size: 12px;&quot;&gt;7.1 Authentication&lt;/font&gt;&lt;/b&gt;" style="edgeLabel;html=1;align=center;verticalAlign=middle;resizable=0;points=[];fontSize=12;" parent="29fOUDgn5rXssrcHdfZw-5" vertex="1" connectable="0">
          <mxGeometry x="-0.0034" y="-1" relative="1" as="geometry">
            <mxPoint as="offset" />
          </mxGeometry>
        </mxCell>
        <mxCell id="29fOUDgn5rXssrcHdfZw-7" value="" style="endArrow=classic;html=1;rounded=0;fontSize=13;exitX=1.008;exitY=0.337;exitDx=0;exitDy=0;entryX=0.008;entryY=0.332;entryDx=0;entryDy=0;exitPerimeter=0;entryPerimeter=0;" parent="1" source="29fOUDgn5rXssrcHdfZw-1" target="29fOUDgn5rXssrcHdfZw-2" edge="1">
          <mxGeometry width="50" height="50" relative="1" as="geometry">
            <mxPoint x="210" y="1860" as="sourcePoint" />
            <mxPoint x="260" y="1810" as="targetPoint" />
          </mxGeometry>
        </mxCell>
        <mxCell id="29fOUDgn5rXssrcHdfZw-8" value="&lt;font style=&quot;font-size: 12px;&quot;&gt;&lt;b style=&quot;font-size: 12px;&quot;&gt;7.2 Verification Request (VR)&lt;/b&gt;&lt;/font&gt;" style="edgeLabel;html=1;align=center;verticalAlign=middle;resizable=0;points=[];fontSize=12;" parent="29fOUDgn5rXssrcHdfZw-7" vertex="1" connectable="0">
          <mxGeometry x="-0.0034" relative="1" as="geometry">
            <mxPoint as="offset" />
          </mxGeometry>
        </mxCell>
        <mxCell id="29fOUDgn5rXssrcHdfZw-9" value="" style="endArrow=classic;html=1;rounded=0;fontSize=12;exitX=-0.008;exitY=0.577;exitDx=0;exitDy=0;entryX=0.997;entryY=0.58;entryDx=0;entryDy=0;entryPerimeter=0;exitPerimeter=0;" parent="1" source="29fOUDgn5rXssrcHdfZw-2" target="29fOUDgn5rXssrcHdfZw-1" edge="1">
          <mxGeometry width="50" height="50" relative="1" as="geometry">
            <mxPoint x="360" y="1920" as="sourcePoint" />
            <mxPoint x="410" y="1870" as="targetPoint" />
          </mxGeometry>
        </mxCell>
        <mxCell id="29fOUDgn5rXssrcHdfZw-10" value="&lt;b style=&quot;font-size: 12px;&quot;&gt;7.16 Credential Status&lt;br style=&quot;font-size: 12px;&quot;&gt;(Upon Consent)&lt;br style=&quot;font-size: 12px;&quot;&gt;&lt;/b&gt;" style="edgeLabel;html=1;align=center;verticalAlign=middle;resizable=0;points=[];fontSize=12;" parent="29fOUDgn5rXssrcHdfZw-9" vertex="1" connectable="0">
          <mxGeometry x="0.0114" relative="1" as="geometry">
            <mxPoint as="offset" />
          </mxGeometry>
        </mxCell>
        <mxCell id="29fOUDgn5rXssrcHdfZw-11" value="" style="endArrow=classic;html=1;rounded=0;fontSize=12;entryX=0.121;entryY=0.008;entryDx=0;entryDy=0;entryPerimeter=0;" parent="1" edge="1" target="29fOUDgn5rXssrcHdfZw-13">
          <mxGeometry width="50" height="50" relative="1" as="geometry">
            <mxPoint x="420" y="1880" as="sourcePoint" />
            <mxPoint x="440" y="2000" as="targetPoint" />
          </mxGeometry>
        </mxCell>
        <mxCell id="29fOUDgn5rXssrcHdfZw-12" value="&lt;b style=&quot;font-size: 12px;&quot;&gt;7.3.1 Record Provenance&lt;/b&gt;" style="edgeLabel;html=1;align=center;verticalAlign=middle;resizable=0;points=[];fontSize=12;" parent="29fOUDgn5rXssrcHdfZw-11" vertex="1" connectable="0">
          <mxGeometry x="0.0114" relative="1" as="geometry">
            <mxPoint y="-21" as="offset" />
          </mxGeometry>
        </mxCell>
        <mxCell id="29fOUDgn5rXssrcHdfZw-13" value="&lt;b&gt;5.1 Employer Controller&lt;br&gt;&lt;/b&gt;" style="rounded=0;whiteSpace=wrap;html=1;fontSize=16;fillColor=#e1d5e7;strokeColor=#9673a6;" parent="1" vertex="1">
          <mxGeometry x="400" y="2000" width="165" height="120" as="geometry" />
        </mxCell>
        <mxCell id="29fOUDgn5rXssrcHdfZw-14" value="&lt;b&gt;&lt;span style=&quot;font-size: 24px&quot;&gt;&lt;br&gt;&lt;/span&gt;&lt;br&gt;&lt;/b&gt;" style="rounded=0;whiteSpace=wrap;html=1;fontSize=16;fillColor=#d5e8d4;strokeColor=#82b366;" parent="1" vertex="1">
          <mxGeometry x="280" y="2250" width="1090" height="140" as="geometry" />
        </mxCell>
        <mxCell id="29fOUDgn5rXssrcHdfZw-15" value="" style="endArrow=classic;html=1;rounded=0;fontSize=12;exitX=0.1;exitY=0.999;exitDx=0;exitDy=0;exitPerimeter=0;" parent="1" source="29fOUDgn5rXssrcHdfZw-13" edge="1">
          <mxGeometry width="50" height="50" relative="1" as="geometry">
            <mxPoint x="451.25" y="1890" as="sourcePoint" />
            <mxPoint x="417" y="2250" as="targetPoint" />
          </mxGeometry>
        </mxCell>
        <mxCell id="29fOUDgn5rXssrcHdfZw-16" value="&lt;b style=&quot;font-size: 12px;&quot;&gt;7.3.2 Record VR&lt;/b&gt;" style="edgeLabel;html=1;align=center;verticalAlign=middle;resizable=0;points=[];fontSize=12;" parent="29fOUDgn5rXssrcHdfZw-15" vertex="1" connectable="0">
          <mxGeometry x="0.0114" relative="1" as="geometry">
            <mxPoint y="-41" as="offset" />
          </mxGeometry>
        </mxCell>
        <mxCell id="29fOUDgn5rXssrcHdfZw-17" value="&lt;b&gt;5.2 Credential Holder Controller&lt;br&gt;&lt;/b&gt;" style="rounded=0;whiteSpace=wrap;html=1;fontSize=16;fillColor=#e1d5e7;strokeColor=#9673a6;" parent="1" vertex="1">
          <mxGeometry x="760" y="2000" width="165" height="120" as="geometry" />
        </mxCell>
        <mxCell id="29fOUDgn5rXssrcHdfZw-18" value="" style="endArrow=classic;html=1;rounded=0;fontSize=12;exitX=1;exitY=0.5;exitDx=0;exitDy=0;entryX=0;entryY=0.5;entryDx=0;entryDy=0;" parent="1" source="29fOUDgn5rXssrcHdfZw-13" target="29fOUDgn5rXssrcHdfZw-17" edge="1">
          <mxGeometry width="50" height="50" relative="1" as="geometry">
            <mxPoint x="451.25" y="1890" as="sourcePoint" />
            <mxPoint x="450" y="2010" as="targetPoint" />
          </mxGeometry>
        </mxCell>
        <mxCell id="29fOUDgn5rXssrcHdfZw-19" value="&lt;b style=&quot;font-size: 12px;&quot;&gt;7.4 Initialize Consent Process&lt;/b&gt;" style="edgeLabel;html=1;align=center;verticalAlign=middle;resizable=0;points=[];fontSize=12;" parent="29fOUDgn5rXssrcHdfZw-18" vertex="1" connectable="0">
          <mxGeometry x="0.0114" relative="1" as="geometry">
            <mxPoint as="offset" />
          </mxGeometry>
        </mxCell>
        <mxCell id="29fOUDgn5rXssrcHdfZw-20" value="" style="endArrow=classic;html=1;rounded=0;fontSize=24;entryX=0.25;entryY=1;entryDx=0;entryDy=0;" parent="1" target="29fOUDgn5rXssrcHdfZw-22" edge="1">
          <mxGeometry width="50" height="50" relative="1" as="geometry">
            <mxPoint x="800" y="2000" as="sourcePoint" />
            <mxPoint x="880" y="1900" as="targetPoint" />
          </mxGeometry>
        </mxCell>
        <mxCell id="29fOUDgn5rXssrcHdfZw-21" value="&lt;font style=&quot;font-size: 12px;&quot;&gt;&lt;b style=&quot;font-size: 12px;&quot;&gt;7.5 Send Consent Portal Link&lt;/b&gt;&lt;/font&gt;" style="edgeLabel;html=1;align=center;verticalAlign=middle;resizable=0;points=[];fontSize=12;" parent="29fOUDgn5rXssrcHdfZw-20" vertex="1" connectable="0">
          <mxGeometry x="0.0151" y="2" relative="1" as="geometry">
            <mxPoint y="31" as="offset" />
          </mxGeometry>
        </mxCell>
        <mxCell id="29fOUDgn5rXssrcHdfZw-22" value="&lt;b&gt;4.2 Credential Holder Portal&lt;br&gt;&lt;/b&gt;" style="rounded=0;whiteSpace=wrap;html=1;fontSize=16;fillColor=#fff2cc;strokeColor=#d6b656;" parent="1" vertex="1">
          <mxGeometry x="760" y="1760" width="160" height="120" as="geometry" />
        </mxCell>
        <mxCell id="29fOUDgn5rXssrcHdfZw-23" value="" style="endArrow=classic;startArrow=classic;html=1;rounded=0;fontSize=13;entryX=0;entryY=0.5;entryDx=0;entryDy=0;exitX=1;exitY=0.5;exitDx=0;exitDy=0;" parent="1" source="29fOUDgn5rXssrcHdfZw-22" target="29fOUDgn5rXssrcHdfZw-3" edge="1">
          <mxGeometry width="50" height="50" relative="1" as="geometry">
            <mxPoint x="920" y="1800" as="sourcePoint" />
            <mxPoint x="1110" y="1800" as="targetPoint" />
          </mxGeometry>
        </mxCell>
        <mxCell id="29fOUDgn5rXssrcHdfZw-24" value="&lt;b&gt;&lt;font style=&quot;font-size: 12px&quot;&gt;7.6 Informed Consent&lt;/font&gt;&lt;/b&gt;" style="edgeLabel;html=1;align=center;verticalAlign=middle;resizable=0;points=[];fontSize=10;" parent="29fOUDgn5rXssrcHdfZw-23" vertex="1" connectable="0">
          <mxGeometry x="-0.0034" y="-1" relative="1" as="geometry">
            <mxPoint as="offset" />
          </mxGeometry>
        </mxCell>
        <mxCell id="29fOUDgn5rXssrcHdfZw-25" value="" style="endArrow=classic;html=1;rounded=0;fontSize=12;exitX=0.856;exitY=1.012;exitDx=0;exitDy=0;exitPerimeter=0;entryX=0.834;entryY=-0.013;entryDx=0;entryDy=0;entryPerimeter=0;" parent="1" source="29fOUDgn5rXssrcHdfZw-22" target="29fOUDgn5rXssrcHdfZw-17" edge="1">
          <mxGeometry width="50" height="50" relative="1" as="geometry">
            <mxPoint x="900" y="1930" as="sourcePoint" />
            <mxPoint x="950" y="1880" as="targetPoint" />
          </mxGeometry>
        </mxCell>
        <mxCell id="29fOUDgn5rXssrcHdfZw-26" value="&lt;b style=&quot;font-size: 12px&quot;&gt;7.7 Retrieval of&lt;br&gt;&amp;nbsp;Informed Consent&lt;/b&gt;" style="edgeLabel;html=1;align=center;verticalAlign=middle;resizable=0;points=[];fontSize=12;" parent="29fOUDgn5rXssrcHdfZw-25" vertex="1" connectable="0">
          <mxGeometry x="-0.5857" y="2" relative="1" as="geometry">
            <mxPoint as="offset" />
          </mxGeometry>
        </mxCell>
        <mxCell id="29fOUDgn5rXssrcHdfZw-27" value="" style="endArrow=classic;html=1;rounded=0;fontSize=12;exitX=0.5;exitY=1;exitDx=0;exitDy=0;entryX=0.516;entryY=-0.002;entryDx=0;entryDy=0;entryPerimeter=0;" parent="1" source="29fOUDgn5rXssrcHdfZw-17" target="29fOUDgn5rXssrcHdfZw-14" edge="1">
          <mxGeometry width="50" height="50" relative="1" as="geometry">
            <mxPoint x="901.02" y="2120" as="sourcePoint" />
            <mxPoint x="900" y="2199.64" as="targetPoint" />
          </mxGeometry>
        </mxCell>
        <mxCell id="29fOUDgn5rXssrcHdfZw-28" value="&lt;b style=&quot;font-size: 12px;&quot;&gt;7.8 Stored CH Information&lt;br style=&quot;font-size: 12px;&quot;&gt;&lt;/b&gt;" style="edgeLabel;html=1;align=center;verticalAlign=middle;resizable=0;points=[];fontSize=12;" parent="29fOUDgn5rXssrcHdfZw-27" vertex="1" connectable="0">
          <mxGeometry x="0.0114" relative="1" as="geometry">
            <mxPoint as="offset" />
          </mxGeometry>
        </mxCell>
        <mxCell id="29fOUDgn5rXssrcHdfZw-29" value="&lt;b&gt;5.3 Institution &lt;br&gt;Controller&lt;br&gt;&lt;/b&gt;" style="rounded=0;whiteSpace=wrap;html=1;fontSize=16;fillColor=#e1d5e7;strokeColor=#9673a6;" parent="1" vertex="1">
          <mxGeometry x="1150" y="2000" width="165" height="120" as="geometry" />
        </mxCell>
        <mxCell id="29fOUDgn5rXssrcHdfZw-30" value="" style="endArrow=classic;html=1;rounded=0;fontSize=12;exitX=1;exitY=0.5;exitDx=0;exitDy=0;entryX=0;entryY=0.5;entryDx=0;entryDy=0;" parent="1" source="29fOUDgn5rXssrcHdfZw-17" target="29fOUDgn5rXssrcHdfZw-29" edge="1">
          <mxGeometry width="50" height="50" relative="1" as="geometry">
            <mxPoint x="575" y="2070" as="sourcePoint" />
            <mxPoint x="770" y="2070" as="targetPoint" />
          </mxGeometry>
        </mxCell>
        <mxCell id="29fOUDgn5rXssrcHdfZw-31" value="&lt;b style=&quot;font-size: 12px;&quot;&gt;7.9 Initialize Institution Request&lt;/b&gt;" style="edgeLabel;html=1;align=center;verticalAlign=middle;resizable=0;points=[];fontSize=12;" parent="29fOUDgn5rXssrcHdfZw-30" vertex="1" connectable="0">
          <mxGeometry x="0.0114" relative="1" as="geometry">
            <mxPoint as="offset" />
          </mxGeometry>
        </mxCell>
        <mxCell id="29fOUDgn5rXssrcHdfZw-32" value="" style="endArrow=classic;html=1;rounded=0;fontSize=12;exitX=0.055;exitY=1.001;exitDx=0;exitDy=0;entryX=0.807;entryY=0.001;entryDx=0;entryDy=0;entryPerimeter=0;exitPerimeter=0;" parent="1" source="29fOUDgn5rXssrcHdfZw-29" target="29fOUDgn5rXssrcHdfZw-14" edge="1">
          <mxGeometry width="50" height="50" relative="1" as="geometry">
            <mxPoint x="1129.735" y="2120" as="sourcePoint" />
            <mxPoint x="1129" y="2250" as="targetPoint" />
          </mxGeometry>
        </mxCell>
        <mxCell id="29fOUDgn5rXssrcHdfZw-33" value="&lt;b style=&quot;font-size: 12px;&quot;&gt;7.13 Store Institution &lt;br style=&quot;font-size: 12px;&quot;&gt;Information&lt;br style=&quot;font-size: 12px;&quot;&gt;&lt;/b&gt;" style="edgeLabel;html=1;align=center;verticalAlign=middle;resizable=0;points=[];fontSize=12;" parent="29fOUDgn5rXssrcHdfZw-32" vertex="1" connectable="0">
          <mxGeometry x="0.0114" relative="1" as="geometry">
            <mxPoint y="-41" as="offset" />
          </mxGeometry>
        </mxCell>
        <mxCell id="29fOUDgn5rXssrcHdfZw-34" value="&lt;b&gt;4.3 &lt;br&gt;Institution Portal&lt;br&gt;&lt;/b&gt;" style="rounded=0;whiteSpace=wrap;html=1;fontSize=16;fillColor=#fff2cc;strokeColor=#d6b656;" parent="1" vertex="1">
          <mxGeometry x="1350" y="1760" width="160" height="120" as="geometry" />
        </mxCell>
        <mxCell id="29fOUDgn5rXssrcHdfZw-35" value="" style="endArrow=classic;html=1;rounded=0;fontSize=12;exitX=1.004;exitY=0.167;exitDx=0;exitDy=0;entryX=0.055;entryY=0.998;entryDx=0;entryDy=0;exitPerimeter=0;entryPerimeter=0;" parent="1" source="29fOUDgn5rXssrcHdfZw-29" target="29fOUDgn5rXssrcHdfZw-34" edge="1">
          <mxGeometry width="50" height="50" relative="1" as="geometry">
            <mxPoint x="1420" y="2010" as="sourcePoint" />
            <mxPoint x="1470" y="1960" as="targetPoint" />
            <Array as="points">
              <mxPoint x="1360" y="2020" />
            </Array>
          </mxGeometry>
        </mxCell>
        <mxCell id="29fOUDgn5rXssrcHdfZw-36" value="&lt;b style=&quot;font-size: 11px&quot;&gt;&lt;font style=&quot;font-size: 11px&quot;&gt;7.10 Send&lt;br&gt;&amp;nbsp;Institution Request&lt;/font&gt;&lt;/b&gt;" style="edgeLabel;html=1;align=center;verticalAlign=middle;resizable=0;points=[];fontSize=11;" parent="29fOUDgn5rXssrcHdfZw-35" vertex="1" connectable="0">
          <mxGeometry x="0.4942" y="-2" relative="1" as="geometry">
            <mxPoint as="offset" />
          </mxGeometry>
        </mxCell>
        <mxCell id="29fOUDgn5rXssrcHdfZw-37" value="" style="endArrow=classic;startArrow=classic;html=1;rounded=0;fontSize=13;entryX=-0.006;entryY=0.171;entryDx=0;entryDy=0;exitX=0.999;exitY=0.168;exitDx=0;exitDy=0;exitPerimeter=0;entryPerimeter=0;" parent="1" source="29fOUDgn5rXssrcHdfZw-34" target="29fOUDgn5rXssrcHdfZw-4" edge="1">
          <mxGeometry width="50" height="50" relative="1" as="geometry">
            <mxPoint x="929.9999999999995" y="1830" as="sourcePoint" />
            <mxPoint x="1124.9999999999995" y="1830" as="targetPoint" />
          </mxGeometry>
        </mxCell>
        <mxCell id="29fOUDgn5rXssrcHdfZw-38" value="&lt;b style=&quot;font-size: 12px;&quot;&gt;&lt;font style=&quot;font-size: 12px;&quot;&gt;7.11 Gather CH Credential&amp;nbsp;&lt;br style=&quot;font-size: 12px;&quot;&gt;Information&lt;br style=&quot;font-size: 12px;&quot;&gt;&lt;/font&gt;&lt;/b&gt;" style="edgeLabel;html=1;align=center;verticalAlign=middle;resizable=0;points=[];fontSize=12;" parent="29fOUDgn5rXssrcHdfZw-37" vertex="1" connectable="0">
          <mxGeometry x="-0.0034" y="-1" relative="1" as="geometry">
            <mxPoint as="offset" />
          </mxGeometry>
        </mxCell>
        <mxCell id="29fOUDgn5rXssrcHdfZw-39" value="" style="endArrow=classic;html=1;rounded=0;fontSize=12;exitX=0.563;exitY=1;exitDx=0;exitDy=0;entryX=1.002;entryY=0.335;entryDx=0;entryDy=0;entryPerimeter=0;exitPerimeter=0;" parent="1" source="29fOUDgn5rXssrcHdfZw-34" target="29fOUDgn5rXssrcHdfZw-29" edge="1">
          <mxGeometry width="50" height="50" relative="1" as="geometry">
            <mxPoint x="1295" y="2070" as="sourcePoint" />
            <mxPoint x="1400" y="1890" as="targetPoint" />
            <Array as="points">
              <mxPoint x="1440" y="2040" />
            </Array>
          </mxGeometry>
        </mxCell>
        <mxCell id="29fOUDgn5rXssrcHdfZw-40" value="&lt;b style=&quot;font-size: 11px;&quot;&gt;7.12 Retrieval of &lt;br style=&quot;font-size: 11px;&quot;&gt;Institution &lt;br style=&quot;font-size: 11px;&quot;&gt;Request&lt;/b&gt;" style="edgeLabel;html=1;align=center;verticalAlign=middle;resizable=0;points=[];fontSize=11;" parent="29fOUDgn5rXssrcHdfZw-39" vertex="1" connectable="0">
          <mxGeometry x="0.4942" y="-2" relative="1" as="geometry">
            <mxPoint x="42" as="offset" />
          </mxGeometry>
        </mxCell>
        <mxCell id="29fOUDgn5rXssrcHdfZw-41" value="" style="endArrow=classic;html=1;rounded=0;fontSize=12;exitX=0.476;exitY=0.997;exitDx=0;exitDy=0;exitPerimeter=0;entryX=0.872;entryY=0;entryDx=0;entryDy=0;entryPerimeter=0;" parent="1" source="29fOUDgn5rXssrcHdfZw-29" target="29fOUDgn5rXssrcHdfZw-14" edge="1">
          <mxGeometry width="50" height="50" relative="1" as="geometry">
            <mxPoint x="1171.25" y="2130" as="sourcePoint" />
            <mxPoint x="1203" y="2260" as="targetPoint" />
          </mxGeometry>
        </mxCell>
        <mxCell id="29fOUDgn5rXssrcHdfZw-42" value="&lt;b style=&quot;font-size: 12px&quot;&gt;&lt;font style=&quot;font-size: 12px&quot;&gt;7.14 Store CH &lt;br&gt;Cred Data&lt;/font&gt;&lt;br style=&quot;font-size: 12px&quot;&gt;&lt;/b&gt;" style="edgeLabel;html=1;align=center;verticalAlign=middle;resizable=0;points=[];fontSize=12;" parent="29fOUDgn5rXssrcHdfZw-41" vertex="1" connectable="0">
          <mxGeometry x="0.0114" relative="1" as="geometry">
            <mxPoint x="-3" y="6" as="offset" />
          </mxGeometry>
        </mxCell>
        <mxCell id="29fOUDgn5rXssrcHdfZw-43" value="" style="endArrow=classic;html=1;rounded=0;fontSize=12;entryX=0.5;entryY=1;entryDx=0;entryDy=0;exitX=0.186;exitY=0.002;exitDx=0;exitDy=0;exitPerimeter=0;" parent="1" source="29fOUDgn5rXssrcHdfZw-14" target="29fOUDgn5rXssrcHdfZw-13" edge="1">
          <mxGeometry width="50" height="50" relative="1" as="geometry">
            <mxPoint x="483" y="2260" as="sourcePoint" />
            <mxPoint x="450.23" y="2269.6400000000003" as="targetPoint" />
          </mxGeometry>
        </mxCell>
        <mxCell id="29fOUDgn5rXssrcHdfZw-44" value="&lt;b style=&quot;font-size: 12px&quot;&gt;7.15.1 CH Verification&lt;/b&gt;" style="edgeLabel;html=1;align=center;verticalAlign=middle;resizable=0;points=[];fontSize=12;" parent="29fOUDgn5rXssrcHdfZw-43" vertex="1" connectable="0">
          <mxGeometry x="0.0114" relative="1" as="geometry">
            <mxPoint y="20" as="offset" />
          </mxGeometry>
        </mxCell>
        <mxCell id="29fOUDgn5rXssrcHdfZw-45" value="&lt;b&gt;&lt;font style=&quot;font-size: 24px&quot;&gt;6.2 Provenance DB&lt;/font&gt;&lt;br&gt;&lt;/b&gt;" style="rounded=0;whiteSpace=wrap;html=1;fontSize=16;fillColor=#d5e8d4;strokeColor=#82b366;" parent="1" vertex="1">
          <mxGeometry x="270" y="2490" width="1090" height="120" as="geometry" />
        </mxCell>
        <mxCell id="29fOUDgn5rXssrcHdfZw-46" value="" style="endArrow=classic;startArrow=classic;html=1;rounded=0;exitX=0.522;exitY=-0.052;exitDx=0;exitDy=0;exitPerimeter=0;entryX=0.513;entryY=1.01;entryDx=0;entryDy=0;entryPerimeter=0;" parent="1" source="29fOUDgn5rXssrcHdfZw-45" target="29fOUDgn5rXssrcHdfZw-14" edge="1">
          <mxGeometry width="50" height="50" relative="1" as="geometry">
            <mxPoint x="770" y="2280" as="sourcePoint" />
            <mxPoint x="820" y="2230" as="targetPoint" />
          </mxGeometry>
        </mxCell>
        <mxCell id="29fOUDgn5rXssrcHdfZw-47" value="&lt;font style=&quot;font-size: 13px&quot;&gt;&lt;b&gt;Store all data access(s), operations, creations&lt;/b&gt;&lt;/font&gt;" style="edgeLabel;html=1;align=center;verticalAlign=middle;resizable=0;points=[];" parent="29fOUDgn5rXssrcHdfZw-46" vertex="1" connectable="0">
          <mxGeometry x="0.024" relative="1" as="geometry">
            <mxPoint as="offset" />
          </mxGeometry>
        </mxCell>
        <mxCell id="3sNRF9540v7I837oEUSC-1" value="" style="whiteSpace=wrap;html=1;aspect=fixed;fillColor=#dae8fc;strokeColor=#6c8ebf;" vertex="1" parent="1">
          <mxGeometry x="1620" y="1390" width="40" height="40" as="geometry" />
        </mxCell>
        <mxCell id="3sNRF9540v7I837oEUSC-2" value="User Type" style="text;html=1;strokeColor=none;fillColor=none;align=center;verticalAlign=middle;whiteSpace=wrap;rounded=0;fontStyle=1" vertex="1" parent="1">
          <mxGeometry x="1670" y="1395" width="60" height="30" as="geometry" />
        </mxCell>
        <mxCell id="3sNRF9540v7I837oEUSC-3" value="" style="whiteSpace=wrap;html=1;aspect=fixed;fillColor=#fff2cc;strokeColor=#d6b656;" vertex="1" parent="1">
          <mxGeometry x="1620" y="1440" width="40" height="40" as="geometry" />
        </mxCell>
        <mxCell id="3sNRF9540v7I837oEUSC-5" value="Front-End Client" style="text;html=1;strokeColor=none;fillColor=none;align=center;verticalAlign=middle;whiteSpace=wrap;rounded=0;fontStyle=1" vertex="1" parent="1">
          <mxGeometry x="1670" y="1450" width="60" height="30" as="geometry" />
        </mxCell>
        <mxCell id="3sNRF9540v7I837oEUSC-6" value="" style="whiteSpace=wrap;html=1;aspect=fixed;fillColor=#e1d5e7;strokeColor=#9673a6;" vertex="1" parent="1">
          <mxGeometry x="1620" y="1490" width="40" height="40" as="geometry" />
        </mxCell>
        <mxCell id="3sNRF9540v7I837oEUSC-7" value="Server Controller" style="text;html=1;strokeColor=none;fillColor=none;align=center;verticalAlign=middle;whiteSpace=wrap;rounded=0;fontStyle=1" vertex="1" parent="1">
          <mxGeometry x="1670" y="1495" width="60" height="30" as="geometry" />
        </mxCell>
        <mxCell id="3sNRF9540v7I837oEUSC-8" value="" style="whiteSpace=wrap;html=1;aspect=fixed;fillColor=#d5e8d4;strokeColor=#82b366;" vertex="1" parent="1">
          <mxGeometry x="1620" y="1540" width="40" height="40" as="geometry" />
        </mxCell>
        <mxCell id="3sNRF9540v7I837oEUSC-9" value="Database" style="text;html=1;strokeColor=none;fillColor=none;align=center;verticalAlign=middle;whiteSpace=wrap;rounded=0;fontStyle=1" vertex="1" parent="1">
          <mxGeometry x="1670" y="1545" width="60" height="30" as="geometry" />
        </mxCell>
        <mxCell id="3sNRF9540v7I837oEUSC-10" value="" style="endArrow=classic;html=1;rounded=0;fontSize=12;entryX=0.001;entryY=0.832;entryDx=0;entryDy=0;entryPerimeter=0;exitX=1.006;exitY=0.837;exitDx=0;exitDy=0;exitPerimeter=0;" edge="1" parent="1" source="29fOUDgn5rXssrcHdfZw-1" target="29fOUDgn5rXssrcHdfZw-2">
          <mxGeometry width="50" height="50" relative="1" as="geometry">
            <mxPoint x="140" y="1940" as="sourcePoint" />
            <mxPoint x="170.0000000000001" y="1860" as="targetPoint" />
          </mxGeometry>
        </mxCell>
        <mxCell id="3sNRF9540v7I837oEUSC-11" value="&lt;b style=&quot;font-size: 12px;&quot;&gt;7.17 Provide CH Feedback&lt;br style=&quot;font-size: 12px;&quot;&gt;&lt;/b&gt;" style="edgeLabel;html=1;align=center;verticalAlign=middle;resizable=0;points=[];fontSize=12;" vertex="1" connectable="0" parent="3sNRF9540v7I837oEUSC-10">
          <mxGeometry x="0.0114" relative="1" as="geometry">
            <mxPoint as="offset" />
          </mxGeometry>
        </mxCell>
        <mxCell id="3sNRF9540v7I837oEUSC-12" value="" style="endArrow=classic;html=1;rounded=0;fontSize=11;exitX=0.928;exitY=0.001;exitDx=0;exitDy=0;exitPerimeter=0;entryX=0.863;entryY=1.001;entryDx=0;entryDy=0;entryPerimeter=0;" edge="1" parent="1" source="29fOUDgn5rXssrcHdfZw-14" target="29fOUDgn5rXssrcHdfZw-29">
          <mxGeometry width="50" height="50" relative="1" as="geometry">
            <mxPoint x="1300" y="2220" as="sourcePoint" />
            <mxPoint x="1350" y="2170" as="targetPoint" />
          </mxGeometry>
        </mxCell>
        <mxCell id="3sNRF9540v7I837oEUSC-13" value="&lt;b style=&quot;font-size: 12px&quot;&gt;7.16.1 &lt;br&gt;Retrieve Analytics&lt;/b&gt;" style="edgeLabel;html=1;align=center;verticalAlign=middle;resizable=0;points=[];fontSize=12;" vertex="1" connectable="0" parent="3sNRF9540v7I837oEUSC-12">
          <mxGeometry x="0.5863" relative="1" as="geometry">
            <mxPoint as="offset" />
          </mxGeometry>
        </mxCell>
        <mxCell id="3sNRF9540v7I837oEUSC-14" value="" style="endArrow=classic;html=1;rounded=0;fontSize=11;exitX=1.003;exitY=0.664;exitDx=0;exitDy=0;exitPerimeter=0;entryX=0.938;entryY=1;entryDx=0;entryDy=0;entryPerimeter=0;" edge="1" parent="1" source="29fOUDgn5rXssrcHdfZw-29" target="29fOUDgn5rXssrcHdfZw-34">
          <mxGeometry width="50" height="50" relative="1" as="geometry">
            <mxPoint x="1330" y="2030" as="sourcePoint" />
            <mxPoint x="1380" y="1980" as="targetPoint" />
            <Array as="points">
              <mxPoint x="1500" y="2080" />
            </Array>
          </mxGeometry>
        </mxCell>
        <mxCell id="3sNRF9540v7I837oEUSC-15" value="&lt;b style=&quot;font-size: 12px&quot;&gt;7.16.2 Retrieve Analytics&lt;/b&gt;" style="edgeLabel;html=1;align=center;verticalAlign=middle;resizable=0;points=[];fontSize=12;" vertex="1" connectable="0" parent="3sNRF9540v7I837oEUSC-14">
          <mxGeometry x="-0.2337" y="-1" relative="1" as="geometry">
            <mxPoint as="offset" />
          </mxGeometry>
        </mxCell>
        <mxCell id="3sNRF9540v7I837oEUSC-16" value="" style="endArrow=classic;html=1;rounded=0;fontSize=10;exitX=1.005;exitY=0.668;exitDx=0;exitDy=0;exitPerimeter=0;entryX=-0.006;entryY=0.666;entryDx=0;entryDy=0;entryPerimeter=0;" edge="1" parent="1" source="29fOUDgn5rXssrcHdfZw-34" target="29fOUDgn5rXssrcHdfZw-4">
          <mxGeometry width="50" height="50" relative="1" as="geometry">
            <mxPoint x="1560" y="1880" as="sourcePoint" />
            <mxPoint x="1610" y="1830" as="targetPoint" />
          </mxGeometry>
        </mxCell>
        <mxCell id="3sNRF9540v7I837oEUSC-17" value="&lt;b style=&quot;font-size: 12px&quot;&gt;7.17 View Data Analytics&lt;/b&gt;" style="edgeLabel;html=1;align=center;verticalAlign=middle;resizable=0;points=[];fontSize=12;" vertex="1" connectable="0" parent="3sNRF9540v7I837oEUSC-16">
          <mxGeometry x="-0.0589" relative="1" as="geometry">
            <mxPoint as="offset" />
          </mxGeometry>
        </mxCell>
        <mxCell id="3sNRF9540v7I837oEUSC-18" value="" style="endArrow=classic;html=1;rounded=0;fontSize=12;exitX=0.5;exitY=0;exitDx=0;exitDy=0;entryX=0.5;entryY=1;entryDx=0;entryDy=0;" edge="1" parent="1" source="29fOUDgn5rXssrcHdfZw-13" target="29fOUDgn5rXssrcHdfZw-2">
          <mxGeometry width="50" height="50" relative="1" as="geometry">
            <mxPoint x="534.1599999999999" y="2270.84" as="sourcePoint" />
            <mxPoint x="533.75" y="2130" as="targetPoint" />
          </mxGeometry>
        </mxCell>
        <mxCell id="3sNRF9540v7I837oEUSC-19" value="&lt;b style=&quot;font-size: 12px&quot;&gt;7.15.2 &lt;br style=&quot;font-size: 12px&quot;&gt;CH Verification&lt;br&gt;&lt;/b&gt;" style="edgeLabel;html=1;align=center;verticalAlign=middle;resizable=0;points=[];fontSize=12;" vertex="1" connectable="0" parent="3sNRF9540v7I837oEUSC-18">
          <mxGeometry x="0.0114" relative="1" as="geometry">
            <mxPoint y="31" as="offset" />
          </mxGeometry>
        </mxCell>
        <mxCell id="3sNRF9540v7I837oEUSC-20" value="" style="endArrow=classic;html=1;rounded=0;fontSize=12;entryX=0.9;entryY=-0.018;entryDx=0;entryDy=0;entryPerimeter=0;exitX=0.89;exitY=0.996;exitDx=0;exitDy=0;exitPerimeter=0;" edge="1" parent="1" source="29fOUDgn5rXssrcHdfZw-2" target="29fOUDgn5rXssrcHdfZw-13">
          <mxGeometry width="50" height="50" relative="1" as="geometry">
            <mxPoint x="430" y="1890" as="sourcePoint" />
            <mxPoint x="429.96500000000003" y="2010.9599999999998" as="targetPoint" />
          </mxGeometry>
        </mxCell>
        <mxCell id="3sNRF9540v7I837oEUSC-21" value="&lt;b style=&quot;font-size: 12px;&quot;&gt;7.18&lt;br style=&quot;font-size: 12px;&quot;&gt;Store CH Feedback&lt;br style=&quot;font-size: 12px;&quot;&gt;&lt;/b&gt;" style="edgeLabel;html=1;align=center;verticalAlign=middle;resizable=0;points=[];fontSize=12;" vertex="1" connectable="0" parent="3sNRF9540v7I837oEUSC-20">
          <mxGeometry x="0.0114" relative="1" as="geometry">
            <mxPoint y="-10" as="offset" />
          </mxGeometry>
        </mxCell>
        <mxCell id="3sNRF9540v7I837oEUSC-22" value="" style="endArrow=classic;html=1;rounded=0;fontSize=12;exitX=0.956;exitY=0.994;exitDx=0;exitDy=0;exitPerimeter=0;" edge="1" parent="1" source="29fOUDgn5rXssrcHdfZw-13">
          <mxGeometry width="50" height="50" relative="1" as="geometry">
            <mxPoint x="556.8499999999999" y="1889.52" as="sourcePoint" />
            <mxPoint x="558" y="2250" as="targetPoint" />
          </mxGeometry>
        </mxCell>
        <mxCell id="3sNRF9540v7I837oEUSC-23" value="&lt;b style=&quot;font-size: 12px;&quot;&gt;7.18&lt;br style=&quot;font-size: 12px;&quot;&gt;Store CH Feedback&lt;br style=&quot;font-size: 12px;&quot;&gt;&lt;/b&gt;" style="edgeLabel;html=1;align=center;verticalAlign=middle;resizable=0;points=[];fontSize=12;" vertex="1" connectable="0" parent="3sNRF9540v7I837oEUSC-22">
          <mxGeometry x="0.0114" relative="1" as="geometry">
            <mxPoint y="-21" as="offset" />
          </mxGeometry>
        </mxCell>
        <mxCell id="3sNRF9540v7I837oEUSC-24" value="&lt;b&gt;6.1.1 Employer Data&lt;br&gt;&lt;/b&gt;" style="rounded=0;whiteSpace=wrap;html=1;fontSize=16;fillColor=#d5e8d4;strokeColor=#82b366;" vertex="1" parent="1">
          <mxGeometry x="410" y="2260" width="165" height="120" as="geometry" />
        </mxCell>
        <mxCell id="3sNRF9540v7I837oEUSC-25" value="&lt;font style=&quot;font-size: 20px&quot;&gt;&lt;b&gt;6.1 Main Database&lt;/b&gt;&lt;/font&gt;" style="text;html=1;strokeColor=none;fillColor=none;align=center;verticalAlign=middle;whiteSpace=wrap;rounded=0;fontSize=10;" vertex="1" parent="1">
          <mxGeometry x="90" y="2250" width="190" height="30" as="geometry" />
        </mxCell>
        <mxCell id="3sNRF9540v7I837oEUSC-26" value="&lt;b&gt;6.1.2 Credential Holder Data&lt;br&gt;&lt;/b&gt;" style="rounded=0;whiteSpace=wrap;html=1;fontSize=16;fillColor=#d5e8d4;strokeColor=#82b366;" vertex="1" parent="1">
          <mxGeometry x="760" y="2260" width="165" height="120" as="geometry" />
        </mxCell>
        <mxCell id="3sNRF9540v7I837oEUSC-27" value="&lt;b&gt;6.1.2 Credential Holder Data&lt;br&gt;&lt;/b&gt;" style="rounded=0;whiteSpace=wrap;html=1;fontSize=16;fillColor=#d5e8d4;strokeColor=#82b366;" vertex="1" parent="1">
          <mxGeometry x="1120" y="2260" width="165" height="120" as="geometry" />
        </mxCell>
      </root>
    </mxGraphModel>
  </diagram>
</mxfile>
